<?xml version="1.0" encoding="UTF-8"?>
<svg width="20px" height="20px" viewBox="0 0 20 20" version="1.1" xmlns="http://www.w3.org/2000/svg" xmlns:xlink="http://www.w3.org/1999/xlink">
    <defs>
        <rect id="path-1" x="403" y="274" width="634" height="527" rx="20"></rect>
        <filter x="-0.3%" y="-0.2%" width="100.6%" height="100.8%" filterUnits="objectBoundingBox" id="filter-2">
            <feOffset dx="0" dy="1" in="SourceAlpha" result="shadowOffsetOuter1"></feOffset>
            <feGaussianBlur stdDeviation="0.5" in="shadowOffsetOuter1" result="shadowBlurOuter1"></feGaussianBlur>
            <feColorMatrix values="0 0 0 0 0   0 0 0 0 0   0 0 0 0 0  0 0 0 0.5 0" type="matrix" in="shadowBlurOuter1"></feColorMatrix>
        </filter>
        <filter id="filter-3">
            <feColorMatrix in="SourceGraphic" type="matrix" values="0 0 0 0 0.000000 0 0 0 0 0.000000 0 0 0 0 0.000000 0 0 0 1.000000 0"></feColorMatrix>
        </filter>
    </defs>
    <g id="Onboarding" stroke="none" stroke-width="1" fill="none" fill-rule="evenodd">
        <g id="Onboarding-#2" transform="translate(-913.000000, -381.000000)">
            <g id="Rectangle">
                <use fill="black" fill-opacity="1" filter="url(#filter-2)" xlink:href="#path-1"></use>
                <use fill="#FFFFFF" fill-rule="evenodd" xlink:href="#path-1"></use>
            </g>
            <g id="BG-/-BG" transform="translate(483.000000, 368.000000)" fill="#F8F8F8">
                <path d="M12.819426,-5.17920154e-16 L461.180574,5.17920154e-16 C465.638168,-3.00926524e-16 467.254599,0.464128056 468.884229,1.33566352 C470.513858,2.20719898 471.792801,3.48614185 472.664336,5.11577148 C473.535872,6.74540111 474,8.3618323 474,12.819426 L474,37.180574 C474,41.6381677 473.535872,43.2545989 472.664336,44.8842285 C471.792801,46.5138581 470.513858,47.792801 468.884229,48.6643365 C467.254599,49.5358719 465.638168,50 461.180574,50 L12.819426,50 C8.3618323,50 6.74540111,49.5358719 5.11577148,48.6643365 C3.48614185,47.792801 2.20719898,46.5138581 1.33566352,44.8842285 C0.464128056,43.2545989 2.00617683e-16,41.6381677 -3.45280103e-16,37.180574 L3.45280103e-16,12.819426 C-2.00617683e-16,8.3618323 0.464128056,6.74540111 1.33566352,5.11577148 C2.20719898,3.48614185 3.48614185,2.20719898 5.11577148,1.33566352 C6.74540111,0.464128056 8.3618323,3.00926524e-16 12.819426,-5.17920154e-16 Z" id="Color"></path>
            </g>
            <g filter="url(#filter-3)" id="keyboard_arrow_down_black_24dp">
                <g transform="translate(913.000000, 381.000000)">
                    <polygon id="Path" points="0 0 20 0 20 20 0 20"></polygon>
                    <polygon id="Path" fill="#000000" fill-rule="nonzero" points="6.30522917 7.15833333 10.5541667 11.3980139 14.8031042 7.15833333 16.1083333 8.4635625 10.5541667 14.0177292 5 8.4635625"></polygon>
                </g>
            </g>
        </g>
    </g>
</svg>