<?xml version="1.0" encoding="UTF-8"?>
<svg width="24px" height="24px" viewBox="0 0 24 24" version="1.1" xmlns="http://www.w3.org/2000/svg" xmlns:xlink="http://www.w3.org/1999/xlink">
    <title>shuffle_black_24dp</title>
    <defs>
        <rect id="path-1" x="403" y="274" width="634" height="527" rx="20"></rect>
        <filter x="-0.3%" y="-0.2%" width="100.6%" height="100.8%" filterUnits="objectBoundingBox" id="filter-2">
            <feOffset dx="0" dy="1" in="SourceAlpha" result="shadowOffsetOuter1"></feOffset>
            <feGaussianBlur stdDeviation="0.5" in="shadowOffsetOuter1" result="shadowBlurOuter1"></feGaussianBlur>
            <feColorMatrix values="0 0 0 0 0   0 0 0 0 0   0 0 0 0 0  0 0 0 0.5 0" type="matrix" in="shadowBlurOuter1"></feColorMatrix>
        </filter>
        <filter id="filter-3">
            <feColorMatrix in="SourceGraphic" type="matrix" values="0 0 0 0 0.000000 0 0 0 0 0.000000 0 0 0 0 0.000000 0 0 0 1.000000 0"></feColorMatrix>
        </filter>
    </defs>
    <g id="Onboarding" stroke="none" stroke-width="1" fill="none" fill-rule="evenodd">
        <g id="Onboarding-#2" transform="translate(-985.000000, -470.000000)">
            <g id="Rectangle">
                <use fill="black" fill-opacity="1" filter="url(#filter-2)" xlink:href="#path-1"></use>
                <use fill="#FFFFFF" fill-rule="evenodd" xlink:href="#path-1"></use>
            </g>
            <g id="shuffle_black_24dp" transform="translate(483.000000, 447.000000)" filter="url(#filter-3)">
                <g transform="translate(502.000000, 23.000000)">
                    <polygon id="Path" points="0 0 24 0 24 24 0 24"></polygon>
                    <path d="M10.59,9.17 L5.41,4 L4,5.41 L9.17,10.58 L10.59,9.17 Z M14.5,4 L16.54,6.04 L4,18.59 L5.41,20 L17.96,7.46 L20,9.5 L20,4 L14.5,4 Z M14.83,13.41 L13.42,14.82 L16.55,17.95 L14.5,20 L20,20 L20,14.5 L17.96,16.54 L14.83,13.41 L14.83,13.41 Z" id="Shape" fill="#000000" fill-rule="nonzero"></path>
                </g>
            </g>
        </g>
    </g>
</svg>